<?xml version="1.0" standalone="no"?>
<!DOCTYPE svg PUBLIC "-//W3C//DTD SVG 20010904//EN"
 "http://www.w3.org/TR/2001/REC-SVG-20010904/DTD/svg10.dtd">
<svg version="1.0" xmlns="http://www.w3.org/2000/svg"
 width="512.000000pt" height="512.000000pt" viewBox="0 0 512.000000 512.000000"
 preserveAspectRatio="xMidYMid meet">
<metadata>
Created by potrace 1.13, written by Peter Selinger 2001-2015
</metadata>
<g transform="translate(0.000000,512.000000) scale(0.100000,-0.100000)"
fill="#000000" stroke="none">
<path d="M2281 4635 c-56 -18 -138 -74 -174 -120 -16 -20 -40 -61 -55 -93
l-27 -57 -3 -1045 -3 -1044 -447 446 c-492 492 -483 485 -617 495 -85 7 -168
-14 -229 -57 -75 -52 -312 -301 -342 -360 -27 -50 -29 -64 -29 -160 0 -96 2
-110 28 -160 42 -80 1958 -1996 2032 -2031 43 -21 65 -24 155 -24 184 0 85
-86 1193 1028 1099 1103 1032 1026 1032 1187 0 75 -4 93 -33 155 -28 59 -55
92 -180 216 -185 184 -221 204 -362 204 -163 0 -145 14 -657 -498 l-443 -441
-2 1050 -3 1049 -33 67 c-37 75 -103 142 -179 179 -46 23 -56 24 -313 26 -205
2 -275 -1 -309 -12z"/>
</g>
</svg>
